<svg id="visual" viewBox="0 0 960 300" width="960" height="300" xmlns="http://www.w3.org/2000/svg" xmlns:xlink="http://www.w3.org/1999/xlink" version="1.1"><rect x="0" y="0" width="960" height="300" fill="#da53a6"></rect><g transform="translate(476.44381431022595 129.0933497502857)"><path d="M71.7 -76.4C95.8 -65.2 120.3 -45.4 128.3 -19.7C136.3 6 127.9 37.5 111.8 63.8C95.7 90.2 72 111.3 43.6 123C15.3 134.7 -17.7 136.9 -39.2 122.6C-60.8 108.3 -71 77.6 -87.2 50.1C-103.4 22.6 -125.5 -1.7 -124.2 -24.1C-122.9 -46.5 -98.1 -66.9 -73.5 -78.1C-48.9 -89.2 -24.4 -91.1 -0.3 -90.7C23.8 -90.3 47.6 -87.7 71.7 -76.4" fill="#d177ee"></path></g></svg>