<svg id="visual" viewBox="0 0 960 300" width="960" height="300" xmlns="http://www.w3.org/2000/svg" xmlns:xlink="http://www.w3.org/1999/xlink" version="1.1"><rect x="0" y="0" width="960" height="300" fill="#da53a6"></rect><g transform="translate(481.2920116356005 152.74628826889523)"><path d="M59.5 -67.8C78.9 -54.7 97.6 -37.6 104.5 -15.8C111.5 6 106.9 32.5 93.3 51.9C79.8 71.3 57.3 83.6 34 91.1C10.6 98.7 -13.7 101.5 -38.4 96.4C-63.1 91.4 -88.3 78.4 -100.3 57.8C-112.4 37.2 -111.3 8.9 -108.5 -21.2C-105.7 -51.3 -101 -83.1 -82.7 -96.3C-64.3 -109.6 -32.1 -104.3 -6 -97.1C20.1 -89.9 40.2 -80.9 59.5 -67.8" fill="#d177ee"></path></g></svg>