<svg id="visual" viewBox="0 0 960 300" width="960" height="300" xmlns="http://www.w3.org/2000/svg" xmlns:xlink="http://www.w3.org/1999/xlink" version="1.1"><rect x="0" y="0" width="960" height="300" fill="#da53a6"></rect><path d="M0 59L22.8 56.7C45.7 54.3 91.3 49.7 137 42.2C182.7 34.7 228.3 24.3 274 26.3C319.7 28.3 365.3 42.7 411.2 50.5C457 58.3 503 59.7 548.8 55.7C594.7 51.7 640.3 42.3 686 35.5C731.7 28.7 777.3 24.3 823 20.8C868.7 17.3 914.3 14.7 937.2 13.3L960 12L960 301L937.2 301C914.3 301 868.7 301 823 301C777.3 301 731.7 301 686 301C640.3 301 594.7 301 548.8 301C503 301 457 301 411.2 301C365.3 301 319.7 301 274 301C228.3 301 182.7 301 137 301C91.3 301 45.7 301 22.8 301L0 301Z" fill="#da53a6"></path><path d="M0 52L22.8 55.3C45.7 58.7 91.3 65.3 137 71C182.7 76.7 228.3 81.3 274 85.7C319.7 90 365.3 94 411.2 89.2C457 84.3 503 70.7 548.8 65C594.7 59.3 640.3 61.7 686 68.5C731.7 75.3 777.3 86.7 823 84.8C868.7 83 914.3 68 937.2 60.5L960 53L960 301L937.2 301C914.3 301 868.7 301 823 301C777.3 301 731.7 301 686 301C640.3 301 594.7 301 548.8 301C503 301 457 301 411.2 301C365.3 301 319.7 301 274 301C228.3 301 182.7 301 137 301C91.3 301 45.7 301 22.8 301L0 301Z" fill="#ae53a2"></path><path d="M0 132L22.8 129.8C45.7 127.7 91.3 123.3 137 124.2C182.7 125 228.3 131 274 128.3C319.7 125.7 365.3 114.3 411.2 112C457 109.7 503 116.3 548.8 118.3C594.7 120.3 640.3 117.7 686 116C731.7 114.3 777.3 113.7 823 115.3C868.7 117 914.3 121 937.2 123L960 125L960 301L937.2 301C914.3 301 868.7 301 823 301C777.3 301 731.7 301 686 301C640.3 301 594.7 301 548.8 301C503 301 457 301 411.2 301C365.3 301 319.7 301 274 301C228.3 301 182.7 301 137 301C91.3 301 45.7 301 22.8 301L0 301Z" fill="#835095"></path><path d="M0 139L22.8 140.2C45.7 141.3 91.3 143.7 137 148.7C182.7 153.7 228.3 161.3 274 162.3C319.7 163.3 365.3 157.7 411.2 157.5C457 157.3 503 162.7 548.8 165.5C594.7 168.3 640.3 168.7 686 161.5C731.7 154.3 777.3 139.7 823 135.7C868.7 131.7 914.3 138.3 937.2 141.7L960 145L960 301L937.2 301C914.3 301 868.7 301 823 301C777.3 301 731.7 301 686 301C640.3 301 594.7 301 548.8 301C503 301 457 301 411.2 301C365.3 301 319.7 301 274 301C228.3 301 182.7 301 137 301C91.3 301 45.7 301 22.8 301L0 301Z" fill="#5d4a82"></path><path d="M0 190L22.8 191C45.7 192 91.3 194 137 194.3C182.7 194.7 228.3 193.3 274 188C319.7 182.7 365.3 173.3 411.2 169.8C457 166.3 503 168.7 548.8 173.2C594.7 177.7 640.3 184.3 686 189.7C731.7 195 777.3 199 823 199.2C868.7 199.3 914.3 195.7 937.2 193.8L960 192L960 301L937.2 301C914.3 301 868.7 301 823 301C777.3 301 731.7 301 686 301C640.3 301 594.7 301 548.8 301C503 301 457 301 411.2 301C365.3 301 319.7 301 274 301C228.3 301 182.7 301 137 301C91.3 301 45.7 301 22.8 301L0 301Z" fill="#3f4169"></path><path d="M0 238L22.8 233.5C45.7 229 91.3 220 137 221.8C182.7 223.7 228.3 236.3 274 240.2C319.7 244 365.3 239 411.2 236C457 233 503 232 548.8 232.3C594.7 232.7 640.3 234.3 686 231.5C731.7 228.7 777.3 221.3 823 221.3C868.7 221.3 914.3 228.7 937.2 232.3L960 236L960 301L937.2 301C914.3 301 868.7 301 823 301C777.3 301 731.7 301 686 301C640.3 301 594.7 301 548.8 301C503 301 457 301 411.2 301C365.3 301 319.7 301 274 301C228.3 301 182.7 301 137 301C91.3 301 45.7 301 22.8 301L0 301Z" fill="#2b354d"></path><path d="M0 238L22.8 244.3C45.7 250.7 91.3 263.3 137 264.3C182.7 265.3 228.3 254.7 274 249.8C319.7 245 365.3 246 411.2 251.7C457 257.3 503 267.7 548.8 267C594.7 266.3 640.3 254.7 686 249.5C731.7 244.3 777.3 245.7 823 251.3C868.7 257 914.3 267 937.2 272L960 277L960 301L937.2 301C914.3 301 868.7 301 823 301C777.3 301 731.7 301 686 301C640.3 301 594.7 301 548.8 301C503 301 457 301 411.2 301C365.3 301 319.7 301 274 301C228.3 301 182.7 301 137 301C91.3 301 45.7 301 22.8 301L0 301Z" fill="#202731"></path></svg>