<svg id="visual" viewBox="0 0 960 300" width="960" height="300" xmlns="http://www.w3.org/2000/svg" xmlns:xlink="http://www.w3.org/1999/xlink" version="1.1"><rect x="0" y="0" width="960" height="300" fill="#202731"></rect><path d="M0 196L32 189.7C64 183.3 128 170.7 192 166.5C256 162.3 320 166.7 384 174C448 181.3 512 191.7 576 195.5C640 199.3 704 196.7 768 195.5C832 194.3 896 194.7 928 194.8L960 195L960 0L928 0C896 0 832 0 768 0C704 0 640 0 576 0C512 0 448 0 384 0C320 0 256 0 192 0C128 0 64 0 32 0L0 0Z" fill="#6e1911"></path><path d="M0 140L32 145C64 150 128 160 192 165.2C256 170.3 320 170.7 384 168C448 165.3 512 159.7 576 153.5C640 147.3 704 140.7 768 137.8C832 135 896 136 928 136.5L960 137L960 0L928 0C896 0 832 0 768 0C704 0 640 0 576 0C512 0 448 0 384 0C320 0 256 0 192 0C128 0 64 0 32 0L0 0Z" fill="#7d1e15"></path><path d="M0 142L32 142.2C64 142.3 128 142.7 192 142.2C256 141.7 320 140.3 384 137.3C448 134.3 512 129.7 576 130.3C640 131 704 137 768 142.2C832 147.3 896 151.7 928 153.8L960 156L960 0L928 0C896 0 832 0 768 0C704 0 640 0 576 0C512 0 448 0 384 0C320 0 256 0 192 0C128 0 64 0 32 0L0 0Z" fill="#8c2319"></path><path d="M0 116L32 118.2C64 120.3 128 124.7 192 125.2C256 125.7 320 122.3 384 120.8C448 119.3 512 119.7 576 122C640 124.3 704 128.7 768 130C832 131.3 896 129.7 928 128.8L960 128L960 0L928 0C896 0 832 0 768 0C704 0 640 0 576 0C512 0 448 0 384 0C320 0 256 0 192 0C128 0 64 0 32 0L0 0Z" fill="#9c281e"></path><path d="M0 86L32 84.2C64 82.3 128 78.7 192 79.5C256 80.3 320 85.7 384 89.8C448 94 512 97 576 93.7C640 90.3 704 80.7 768 76C832 71.3 896 71.7 928 71.8L960 72L960 0L928 0C896 0 832 0 768 0C704 0 640 0 576 0C512 0 448 0 384 0C320 0 256 0 192 0C128 0 64 0 32 0L0 0Z" fill="#ac2e22"></path><path d="M0 62L32 62C64 62 128 62 192 62.8C256 63.7 320 65.3 384 64.7C448 64 512 61 576 60.3C640 59.7 704 61.3 768 60.7C832 60 896 57 928 55.5L960 54L960 0L928 0C896 0 832 0 768 0C704 0 640 0 576 0C512 0 448 0 384 0C320 0 256 0 192 0C128 0 64 0 32 0L0 0Z" fill="#bc3327"></path><path d="M0 33L32 34.8C64 36.7 128 40.3 192 40.8C256 41.3 320 38.7 384 38.8C448 39 512 42 576 42.5C640 43 704 41 768 37.8C832 34.7 896 30.3 928 28.2L960 26L960 0L928 0C896 0 832 0 768 0C704 0 640 0 576 0C512 0 448 0 384 0C320 0 256 0 192 0C128 0 64 0 32 0L0 0Z" fill="#cc392c"></path><path d="M0 27L32 25.2C64 23.3 128 19.7 192 20.5C256 21.3 320 26.7 384 30.3C448 34 512 36 576 36.2C640 36.3 704 34.7 768 31.7C832 28.7 896 24.3 928 22.2L960 20L960 0L928 0C896 0 832 0 768 0C704 0 640 0 576 0C512 0 448 0 384 0C320 0 256 0 192 0C128 0 64 0 32 0L0 0Z" fill="#dd3f31"></path></svg>